# xmcd CD database file
#
# Track frame offsets:
#	150
#	14459
#	27538
#	43486
#	58398
#	71125
#	84626
#	98439
#	112444
#	127358
#	141281
#	155613
#	169532
#	182950
#	197925
#	213175
#	226344
#	239846
#	253373
#	268129
#	287133
#	302119
#	314950
#	328938
#
# Disc length: 4728 seconds
#
# Revision: 0
# Processed by: cddbd v1.5.2PL0 Copyright (c) Steve Scherf et al.
# Submitted via: CDex 1.70beta2
#
DISCID=98127618
DTITLE=Various Artist - Larkin's Jazz - Oxford
DYEAR=2010
DGENRE=Jazz
TTITLE0=Bix Beiderbecke and His Gang - Since My Best Gal Turned Me Down
TTITLE1=Frankie Trumbauer and His Orchestra - Way Down Yonder In New Orleans
TTITLE2=The Mound City Blueblowers - One Hour
TTITLE3=The Louisiana Rhythm Kings - Basin Street Blues
TTITLE4=Billy Banks and his Orchestra - Bugle Call Rag
TTITLE5=Billy Banks and his Orchestra - Oh Peter
TTITLE6=Billy Banks and his Orchestra - Spider Crawl
TTITLE7=The Rhythmakers - I Would Do Anything For You
TTITLE8=The Rhythmakers - Yellow Dog Blues
TTITLE9=Eddie Condon and his Orchestra - The Eel
TTITLE10=Eddie Condon and his Orchestra - Home Cooking
TTITLE11=Louis Prima and his New Orleans Gang - Chasing Shadows
TTITLE12=Eddie Condon and His Band - I Ain't Gonna Give You None Of My Jelly Roll
TTITLE13=Eddie Condon and His Windy City Seven - Carnegie Drag
TTITLE14=Pee Wee Russell's Hot Four - D.A. Blues
TTITLE15=Art Hodes' Hot Five - Shine
TTITLE16=Muggsy Spanier and his Ragtime Band - I Wish I Could Shimmy Like My Sister Kate
TTITLE17=Harry James and his Boogie-Woogie Trio - Boo-Woo
TTITLE18=Gene Krupa and his Chicagoans - Blues Of Israel
TTITLE19=Benny Goodman and his Orchestra - Life Goes To A Party
TTITLE20=Teddy Wilson and his Orchestra - These Foolish Things
TTITLE21=Billie Holiday and her Orchestra - A Sailboat In The Moonlight
TTITLE22=Jazz At The Philharmonic - The Man I Love
TTITLE23=First English Public Jam Session - Tea for Two
EXTD=YEAR: 2010
EXTT0=
EXTT1=
EXTT2=
EXTT3=
EXTT4=
EXTT5=
EXTT6=
EXTT7=
EXTT8=
EXTT9=
EXTT10=
EXTT11=
EXTT12=
EXTT13=
EXTT14=
EXTT15=
EXTT16=
EXTT17=
EXTT18=
EXTT19=
EXTT20=
EXTT21=
EXTT22=
EXTT23=
PLAYORDER=
